<svg xmlns="http://www.w3.org/2000/svg" viewBox="0 0 64 64" fill="none">
  <!-- Flames -->
  <path d="M26 14 C26 8 30 4 32 2 C34 4 38 8 38 14 C38 18 36 20 34 19 C33 16 32 14 32 14 C32 14 31 16 30 19 C28 20 26 18 26 14Z" fill="#FF6600" opacity="0.9"/>
  <path d="M29 16 C29 12 31 9 32 7 C33 9 35 12 35 16 C35 18 34 19 33 18.5 C32.5 17 32 16 32 16 C32 16 31.5 17 31 18.5 C30 19 29 18 29 16Z" fill="#FFCC00"/>

  <!-- Cross -->
  <rect x="30" y="17" width="4" height="10" rx="1" fill="#8B0000"/>
  <rect x="26" y="20" width="12" height="3.5" rx="1" fill="#8B0000"/>

  <!-- Heart -->
  <path d="M32 56 C32 56 10 42 10 28 C10 20 16 15 22 16 C26 17 29 20 32 24 C35 20 38 17 42 16 C48 15 54 20 54 28 C54 42 32 56 32 56Z" fill="#CC0000"/>
  <path d="M32 50 C32 50 14 38 14 28 C14 22 18 18 22 18.5 C26 19.5 29 22 32 26 C35 22 38 19.5 42 18.5 C46 18 50 22 50 28 C50 38 32 50 32 50Z" fill="#E82020"/>

  <!-- Highlight -->
  <path d="M20 26 C20 22 23 19 26 20 C24 22 23 25 24 28" stroke="rgba(255,255,255,0.35)" stroke-width="2.5" stroke-linecap="round" fill="none"/>

  <!-- Crown of thorns -->
  <path d="M16 27 Q20 22 24 27 Q28 22 32 27 Q36 22 40 27 Q44 22 48 27" stroke="#5C3A00" stroke-width="1.8" fill="none" stroke-linecap="round"/>
  <circle cx="24" cy="27" r="1.2" fill="#5C3A00"/>
  <circle cx="32" cy="27" r="1.2" fill="#5C3A00"/>
  <circle cx="40" cy="27" r="1.2" fill="#5C3A00"/>
</svg>
